<svg width="64" height="64" viewBox="0 0 64 64" fill="none" xmlns="http://www.w3.org/2000/svg">
<g clip-path="url(#clip0_948_1069)">
<g filter="url(#filter0_ddd_948_1069)">
<rect width="64" height="64" fill="url(#paint0_linear_948_1069)" style=""/>
<rect width="64" height="64" fill="url(#paint1_linear_948_1069)" style=""/>
<g filter="url(#filter1_di_948_1069)">
<path d="M8.44021 38.5C8.30192 38.5 8.18878 38.456 8.10078 38.368C8.01278 38.28 7.96878 38.1669 7.96878 38.0286V36.8971C7.96878 36.7966 7.99392 36.6646 8.04421 36.5011C8.10707 36.3251 8.23907 36.1554 8.44021 35.992L10.9294 33.5217C11.8471 32.8177 12.5888 32.2206 13.1545 31.7303C13.7328 31.24 14.1602 30.7937 14.4368 30.3914C14.7134 29.9891 14.8516 29.5994 14.8516 29.2223C14.8516 28.732 14.7134 28.3297 14.4368 28.0154C14.1728 27.6886 13.7391 27.5251 13.1356 27.5251C12.7334 27.5251 12.3939 27.6131 12.1174 27.7891C11.8534 27.9526 11.6459 28.1726 11.4951 28.4491C11.3442 28.7257 11.2436 29.0274 11.1934 29.3543C11.1556 29.5177 11.0739 29.6309 10.9482 29.6937C10.8351 29.7566 10.7156 29.788 10.5899 29.788H8.59107C8.46535 29.788 8.36478 29.7503 8.28935 29.6749C8.21392 29.5869 8.17621 29.4926 8.17621 29.392C8.18878 28.8137 8.30821 28.2669 8.5345 27.7514C8.77335 27.236 9.1065 26.7771 9.53392 26.3749C9.96135 25.9726 10.4768 25.6583 11.0802 25.432C11.6836 25.1931 12.3688 25.0737 13.1356 25.0737C14.1916 25.0737 15.0779 25.2497 15.7945 25.6017C16.5111 25.9411 17.0516 26.4126 17.4162 27.016C17.7808 27.6194 17.9631 28.3171 17.9631 29.1091C17.9631 29.7126 17.8374 30.272 17.5859 30.7874C17.3471 31.3029 16.9951 31.7994 16.5299 32.2771C16.0648 32.7423 15.5116 33.2263 14.8705 33.7291L12.6454 35.9543H17.7745C17.9128 35.9543 18.0259 35.9983 18.1139 36.0863C18.2019 36.1743 18.2459 36.2874 18.2459 36.4257V38.0286C18.2459 38.1669 18.2019 38.28 18.1139 38.368C18.0259 38.456 17.9128 38.5 17.7745 38.5H8.44021ZM25.4077 38.6886C24.5025 38.6886 23.7231 38.5629 23.0694 38.3114C22.4282 38.0474 21.8939 37.6891 21.4665 37.2366C21.0517 36.7714 20.7374 36.2371 20.5237 35.6337C20.3225 35.0177 20.2031 34.364 20.1654 33.6726C20.1528 33.3331 20.1402 32.956 20.1277 32.5411C20.1277 32.1137 20.1277 31.6863 20.1277 31.2589C20.1402 30.8314 20.1528 30.4417 20.1654 30.0897C20.1905 29.3983 20.3099 28.7509 20.5237 28.1474C20.7499 27.544 21.0768 27.016 21.5042 26.5634C21.9317 26.1109 22.4659 25.7589 23.1071 25.5074C23.7608 25.2434 24.5277 25.1114 25.4077 25.1114C26.2877 25.1114 27.0482 25.2434 27.6894 25.5074C28.3305 25.7589 28.8648 26.1109 29.2922 26.5634C29.7197 27.016 30.0402 27.544 30.2539 28.1474C30.4802 28.7509 30.6122 29.3983 30.6499 30.0897C30.6625 30.4417 30.6688 30.8314 30.6688 31.2589C30.6814 31.6863 30.6814 32.1137 30.6688 32.5411C30.6688 32.956 30.6625 33.3331 30.6499 33.6726C30.6122 34.364 30.4865 35.0177 30.2728 35.6337C30.0591 36.2371 29.7385 36.7714 29.3111 37.2366C28.8962 37.6891 28.3619 38.0474 27.7082 38.3114C27.0671 38.5629 26.3002 38.6886 25.4077 38.6886ZM25.4077 36.2371C26.1368 36.2371 26.6711 35.9983 27.0105 35.5206C27.3499 35.0429 27.5322 34.3954 27.5574 33.5783C27.5699 33.2137 27.5762 32.8366 27.5762 32.4469C27.5888 32.0571 27.5888 31.6674 27.5762 31.2777C27.5762 30.888 27.5699 30.5234 27.5574 30.184C27.5322 29.4046 27.3499 28.7697 27.0105 28.2794C26.6711 27.7891 26.1368 27.5377 25.4077 27.5251C24.6659 27.5377 24.1254 27.7891 23.7859 28.2794C23.4591 28.7697 23.2831 29.4046 23.2579 30.184C23.2454 30.5234 23.2328 30.888 23.2202 31.2777C23.2202 31.6674 23.2202 32.0571 23.2202 32.4469C23.2328 32.8366 23.2454 33.2137 23.2579 33.5783C23.2831 34.3954 23.4654 35.0429 23.8048 35.5206C24.1442 35.9983 24.6785 36.2371 25.4077 36.2371ZM39.0974 38.5C38.9716 38.5 38.8648 38.456 38.7768 38.368C38.6888 38.28 38.6448 38.1669 38.6448 38.0286V35.7657H32.7048C32.5791 35.7657 32.4722 35.7217 32.3842 35.6337C32.2962 35.5457 32.2522 35.4326 32.2522 35.2943V33.7669C32.2522 33.6789 32.2711 33.5846 32.3088 33.484C32.3465 33.3834 32.3968 33.2891 32.4596 33.2011L37.9848 25.6206C38.1482 25.4069 38.3808 25.3 38.6825 25.3H41.0774C41.2031 25.3 41.3099 25.344 41.3979 25.432C41.4859 25.52 41.5299 25.6331 41.5299 25.7714V33.2577H43.2082C43.3591 33.2577 43.4722 33.3017 43.5476 33.3897C43.6356 33.4777 43.6796 33.5846 43.6796 33.7103V35.2943C43.6796 35.4326 43.6356 35.5457 43.5476 35.6337C43.4596 35.7217 43.3528 35.7657 43.2271 35.7657H41.5299V38.0286C41.5299 38.1669 41.4859 38.28 41.3979 38.368C41.3099 38.456 41.2031 38.5 41.0774 38.5H39.0974ZM35.1751 33.352H38.7014V28.3926L35.1751 33.352ZM50.5624 38.6886C49.6824 38.6886 48.9029 38.588 48.2241 38.3869C47.5578 38.1731 46.9984 37.884 46.5458 37.5194C46.0932 37.1423 45.7538 36.7086 45.5275 36.2183C45.3012 35.7154 45.1881 35.1686 45.1881 34.5777C45.1881 33.8611 45.3641 33.2389 45.7161 32.7109C46.0681 32.1829 46.5144 31.7743 47.0549 31.4851C46.6149 31.196 46.2692 30.8314 46.0178 30.3914C45.7789 29.9389 45.6595 29.4171 45.6595 28.8263C45.6595 28.1097 45.8418 27.4749 46.2064 26.9217C46.5709 26.3686 47.1115 25.9286 47.8281 25.6017C48.5572 25.2749 49.4686 25.1114 50.5624 25.1114C51.6435 25.1114 52.5424 25.2749 53.2589 25.6017C53.9755 25.916 54.5161 26.3497 54.8806 26.9029C55.2452 27.456 55.4275 28.0909 55.4275 28.8074C55.4275 29.3983 55.3081 29.92 55.0692 30.3726C54.8304 30.8251 54.4909 31.196 54.0509 31.4851C54.6292 31.7617 55.0881 32.1703 55.4275 32.7109C55.7669 33.2514 55.9366 33.88 55.9366 34.5966C55.9366 35.376 55.7355 36.0737 55.3332 36.6897C54.9309 37.3057 54.3275 37.796 53.5229 38.1606C52.7184 38.5126 51.7315 38.6886 50.5624 38.6886ZM50.5624 36.52C51.0024 36.52 51.4046 36.4446 51.7692 36.2937C52.1338 36.1303 52.4166 35.904 52.6178 35.6149C52.8315 35.3257 52.9384 34.9863 52.9384 34.5966C52.9384 34.1943 52.8315 33.8549 52.6178 33.5783C52.4166 33.2891 52.1338 33.0691 51.7692 32.9183C51.4046 32.7549 51.0024 32.6731 50.5624 32.6731C50.1098 32.6731 49.7012 32.7549 49.3366 32.9183C48.9846 33.0691 48.7018 33.2891 48.4881 33.5783C48.2744 33.8549 48.1675 34.1943 48.1675 34.5966C48.1675 34.9863 48.2744 35.3257 48.4881 35.6149C48.7018 35.904 48.9846 36.1303 49.3366 36.2937C49.7012 36.4446 50.1098 36.52 50.5624 36.52ZM50.5624 30.6177C50.9521 30.6051 51.3041 30.5297 51.6184 30.3914C51.9326 30.2531 52.1841 30.0646 52.3726 29.8257C52.5612 29.5743 52.6555 29.2851 52.6555 28.9583C52.6555 28.6189 52.5612 28.3297 52.3726 28.0909C52.1966 27.8394 51.9515 27.6446 51.6372 27.5063C51.3229 27.368 50.9646 27.2989 50.5624 27.2989C50.1601 27.2989 49.7955 27.368 49.4686 27.5063C49.1544 27.6446 48.9092 27.8394 48.7332 28.0909C48.5572 28.3297 48.4692 28.6189 48.4692 28.9583C48.4692 29.2977 48.5572 29.5931 48.7332 29.8446C48.9092 30.0834 49.1544 30.272 49.4686 30.4103C49.7955 30.5486 50.1601 30.6177 50.5624 30.6177Z" fill="white" style="fill:white;fill-opacity:1;"/>
</g>
</g>
</g>
<defs>
<filter id="filter0_ddd_948_1069" x="-14" y="-12" width="92" height="92" filterUnits="userSpaceOnUse" color-interpolation-filters="sRGB">
<feFlood flood-opacity="0" result="BackgroundImageFix"/>
<feColorMatrix in="SourceAlpha" type="matrix" values="0 0 0 0 0 0 0 0 0 0 0 0 0 0 0 0 0 0 127 0" result="hardAlpha"/>
<feOffset dy="4"/>
<feGaussianBlur stdDeviation="3"/>
<feComposite in2="hardAlpha" operator="out"/>
<feColorMatrix type="matrix" values="0 0 0 0 0 0 0 0 0 0 0 0 0 0 0 0 0 0 0.2 0"/>
<feBlend mode="normal" in2="BackgroundImageFix" result="effect1_dropShadow_948_1069"/>
<feColorMatrix in="SourceAlpha" type="matrix" values="0 0 0 0 0 0 0 0 0 0 0 0 0 0 0 0 0 0 127 0" result="hardAlpha"/>
<feOffset dy="-2"/>
<feGaussianBlur stdDeviation="5"/>
<feComposite in2="hardAlpha" operator="out"/>
<feColorMatrix type="matrix" values="0 0 0 0 0.901961 0 0 0 0 0.768627 0 0 0 0 0.309804 0 0 0 0.6 0"/>
<feBlend mode="normal" in2="effect1_dropShadow_948_1069" result="effect2_dropShadow_948_1069"/>
<feColorMatrix in="SourceAlpha" type="matrix" values="0 0 0 0 0 0 0 0 0 0 0 0 0 0 0 0 0 0 127 0" result="hardAlpha"/>
<feOffset dy="2"/>
<feGaussianBlur stdDeviation="7"/>
<feComposite in2="hardAlpha" operator="out"/>
<feColorMatrix type="matrix" values="0 0 0 0 1 0 0 0 0 0.741176 0 0 0 0 0.0588235 0 0 0 0.6 0"/>
<feBlend mode="normal" in2="effect2_dropShadow_948_1069" result="effect3_dropShadow_948_1069"/>
<feBlend mode="normal" in="SourceGraphic" in2="effect3_dropShadow_948_1069" result="shape"/>
</filter>
<filter id="filter1_di_948_1069" x="7.39732" y="23.9309" width="49.1106" height="15.9006" filterUnits="userSpaceOnUse" color-interpolation-filters="sRGB">
<feFlood flood-opacity="0" result="BackgroundImageFix"/>
<feColorMatrix in="SourceAlpha" type="matrix" values="0 0 0 0 0 0 0 0 0 0 0 0 0 0 0 0 0 0 127 0" result="hardAlpha"/>
<feOffset dy="-0.571429"/>
<feGaussianBlur stdDeviation="0.285714"/>
<feComposite in2="hardAlpha" operator="out"/>
<feColorMatrix type="matrix" values="0 0 0 0 0 0 0 0 0 0 0 0 0 0 0 0 0 0 0.1 0"/>
<feBlend mode="normal" in2="BackgroundImageFix" result="effect1_dropShadow_948_1069"/>
<feBlend mode="normal" in="SourceGraphic" in2="effect1_dropShadow_948_1069" result="shape"/>
<feColorMatrix in="SourceAlpha" type="matrix" values="0 0 0 0 0 0 0 0 0 0 0 0 0 0 0 0 0 0 127 0" result="hardAlpha"/>
<feOffset dy="1.14286"/>
<feGaussianBlur stdDeviation="0.571429"/>
<feComposite in2="hardAlpha" operator="arithmetic" k2="-1" k3="1"/>
<feColorMatrix type="matrix" values="0 0 0 0 0 0 0 0 0 0 0 0 0 0 0 0 0 0 0.05 0"/>
<feBlend mode="normal" in2="shape" result="effect2_innerShadow_948_1069"/>
</filter>
<linearGradient id="paint0_linear_948_1069" x1="32" y1="0" x2="32" y2="64" gradientUnits="userSpaceOnUse">
<stop stop-color="#EFDB94" style="stop-color:#EFDB94;stop-color:color(display-p3 0.9380 0.8596 0.5820);stop-opacity:1;"/>
<stop offset="1" stop-color="#ECD069" style="stop-color:#ECD069;stop-color:color(display-p3 0.9274 0.8159 0.4126);stop-opacity:1;"/>
</linearGradient>
<linearGradient id="paint1_linear_948_1069" x1="32" y1="0" x2="32" y2="64" gradientUnits="userSpaceOnUse">
<stop stop-color="#FCDB69" style="stop-color:#FCDB69;stop-color:color(display-p3 0.9863 0.8574 0.4137);stop-opacity:1;"/>
<stop offset="0.333333" stop-color="#FFD33C" style="stop-color:#FFD33C;stop-color:color(display-p3 1.0000 0.8268 0.2369);stop-opacity:1;"/>
<stop offset="0.666667" stop-color="#FFBA0A" style="stop-color:#FFBA0A;stop-color:color(display-p3 1.0000 0.7312 0.0400);stop-opacity:1;"/>
<stop offset="1" stop-color="#EEC450" style="stop-color:#EEC450;stop-color:color(display-p3 0.9318 0.7669 0.3133);stop-opacity:1;"/>
</linearGradient>
<clipPath id="clip0_948_1069">
<rect width="64" height="64" fill="white" style="fill:white;fill-opacity:1;"/>
</clipPath>
</defs>
</svg>
